<?xml version="1.0" encoding="UTF-8" standalone="no"?>
<svg
   id="a"
   viewBox="0 0 89.609999 58.54638"
   version="1.1"
   width="89.610001"
   height="58.546383"
   xmlns="http://www.w3.org/2000/svg"
   xmlns:svg="http://www.w3.org/2000/svg">
  <defs
     id="defs4">
    <style
       id="style2">.b{fill:#38d430;}</style>
  </defs>
  <path
     class="b"
     d="m 21.65,29.27638 c 0,-4.32 1.83,-8.4 5.03,-11.19 l 0.12,-0.11 -0.03,-0.15 c -0.52,-2.98 -1.71,-7.98 -3.9,-8.18 -0.13,-0.03 -0.18,-0.02 -0.3,0 -3.08,0.35 -4.75,10.36 -4.75,19.62 0,9.26 1.67,19.33 4.72,19.62 0.08,0.02 0.15,0.02 0.2,0.02 0.03,0 0.07,0 0.13,-0.01 2.19,-0.19 3.39,-5.2 3.9,-8.18 l 0.03,-0.15 -0.12,-0.11 c -3.2,-2.79 -5.03,-6.87 -5.03,-11.2 z"
     id="path6" />
  <path
     class="b"
     d="m 33.97,15.85638 h -0.1 c 0,0 -0.1,0 -0.11,0 -2.19,0.21 -3.34,6.91 -3.34,13.42 0,6.51 1.15,13.21 3.27,13.41 0.07,0.02 0.13,0.02 0.17,0.02 h 0.12 c 2.18,-0.26 3.32,-6.92 3.32,-13.43 0,-6.51 -1.17,-13.23 -3.34,-13.42 z"
     id="path8" />
  <path
     class="b"
     d="m 44.74,24.55638 c -2.63,0 -4.76,2.12 -4.76,4.72 0,2.6 2.14,4.72 4.76,4.72 2.62,0 4.76,-2.12 4.76,-4.72 0,-2.6 -2.14,-4.72 -4.76,-4.72 z"
     id="path10" />
  <path
     class="b"
     d="m 5.41,29.27638 c 0,-6.51 2.76,-12.66 7.58,-16.87 l 0.12,-0.11 -0.03,-0.15 c -0.77,-4.43 -2.53,-11.87 -5.71,-12.12 -0.17,-0.04 -0.25,-0.03 -0.39,0 -4.37,0.48 -6.98,15.23 -6.98,29.25 0,14.02 2.62,28.83 6.95,29.24 0.1,0.03 0.19,0.03 0.26,0.03 0.04,0 0.09,0 0.16,-0.02 3.18,-0.25 4.94,-7.7 5.71,-12.12 l 0.03,-0.15 -0.12,-0.11 c -4.82,-4.21 -7.59,-10.36 -7.59,-16.87 z"
     id="path12" />
  <path
     class="b"
     d="m 67.96,29.27638 c 0,-4.32 -1.83,-8.4 -5.03,-11.19 l -0.12,-0.11 0.03,-0.15 c 0.52,-2.98 1.71,-7.98 3.9,-8.18 0.13,-0.03 0.18,-0.02 0.3,0 3.08,0.35 4.75,10.36 4.75,19.62 0,9.26 -1.67,19.33 -4.72,19.62 -0.08,0.02 -0.15,0.02 -0.2,0.02 -0.03,0 -0.07,0 -0.13,-0.01 -2.19,-0.19 -3.39,-5.2 -3.9,-8.18 l -0.03,-0.15 0.12,-0.11 c 3.2,-2.79 5.03,-6.87 5.03,-11.2 z"
     id="path14" />
  <path
     class="b"
     d="m 55.64,15.85638 h 0.1 c 0,0 0.1,0 0.11,0 2.19,0.21 3.34,6.91 3.34,13.42 0,6.51 -1.15,13.21 -3.27,13.41 -0.07,0.02 -0.13,0.02 -0.17,0.02 h -0.12 c -2.18,-0.26 -3.32,-6.92 -3.32,-13.43 0,-6.51 1.17,-13.23 3.34,-13.42 z"
     id="path16" />
  <path
     class="b"
     d="m 84.2,29.27638 c 0,-6.51 -2.76,-12.66 -7.58,-16.87 l -0.12,-0.11 0.03,-0.15 c 0.77,-4.43 2.53,-11.87 5.71,-12.12 0.17,-0.04 0.25,-0.03 0.39,0 4.37,0.48 6.98,15.23 6.98,29.25 0,14.02 -2.62,28.83 -6.95,29.24 -0.1,0.03 -0.19,0.03 -0.26,0.03 -0.04,0 -0.09,0 -0.16,-0.02 -3.18,-0.25 -4.94,-7.7 -5.71,-12.12 l -0.03,-0.15 0.12,-0.11 c 4.82,-4.21 7.59,-10.36 7.59,-16.87 z"
     id="path18" />
</svg>
